G04 #@! TF.GenerationSoftware,KiCad,Pcbnew,8.99.0-344-gfbc433deaa*
G04 #@! TF.CreationDate,2024-05-05T12:56:36-04:00*
G04 #@! TF.ProjectId,nandFlex,6e616e64-466c-4657-982e-6b696361645f,3*
G04 #@! TF.SameCoordinates,Original*
G04 #@! TF.FileFunction,Profile,NP*
%FSLAX46Y46*%
G04 Gerber Fmt 4.6, Leading zero omitted, Abs format (unit mm)*
G04 Created by KiCad (PCBNEW 8.99.0-344-gfbc433deaa) date 2024-05-05 12:56:36*
%MOMM*%
%LPD*%
G01*
G04 APERTURE LIST*
G04 #@! TA.AperFunction,Profile*
%ADD10C,0.150000*%
G04 #@! TD*
G04 APERTURE END LIST*
D10*
X214490110Y-68578324D02*
X214490110Y-71124110D01*
X222342839Y-68074388D02*
X222342839Y-68474388D01*
X232293539Y-66151950D02*
G75*
G02*
X233218469Y-67149133I-75039J-997150D01*
G01*
X218730848Y-87585091D02*
G75*
G02*
X218412798Y-86504635I1681752J1082091D01*
G01*
X229418529Y-71421530D02*
G75*
G02*
X230418529Y-70421529I999971J30D01*
G01*
X232293539Y-66151950D02*
X217674633Y-65052282D01*
X227479545Y-82655501D02*
G75*
G02*
X225079545Y-82655501I-1200000J0D01*
G01*
X225079545Y-82655501D02*
G75*
G02*
X227479545Y-82655501I1200000J0D01*
G01*
X220842839Y-68774388D02*
G75*
G02*
X220542812Y-68474388I-39J299988D01*
G01*
X230568204Y-89144815D02*
X230578242Y-89130023D01*
X214197217Y-67871217D02*
G75*
G02*
X214490090Y-68578324I-707117J-707083D01*
G01*
X233218529Y-67149133D02*
X233218529Y-69421530D01*
X222042839Y-68774388D02*
X220842839Y-68774388D01*
X220842839Y-67774388D02*
X222042839Y-67774388D01*
X222210559Y-75296674D02*
G75*
G02*
X219938877Y-75296674I-1135841J0D01*
G01*
X219938877Y-75296674D02*
G75*
G02*
X222210559Y-75296674I1135841J0D01*
G01*
X233218529Y-69421530D02*
G75*
G02*
X232218529Y-70421529I-1000029J30D01*
G01*
X216924529Y-65024110D02*
X213150110Y-65024110D01*
X222342839Y-68474388D02*
G75*
G02*
X222042839Y-68774339I-299939J-12D01*
G01*
X230923291Y-88007020D02*
X230923291Y-76427070D01*
X213046556Y-66720556D02*
G75*
G02*
X212900105Y-66367003I353544J353556D01*
G01*
X213046556Y-66720556D02*
X214197217Y-67871217D01*
X229687532Y-73486326D02*
X230519787Y-74924336D01*
X228913786Y-90021813D02*
X221391861Y-90023819D01*
X217700706Y-71624110D02*
X214990110Y-71624110D01*
X214990110Y-71624110D02*
G75*
G02*
X214490090Y-71124110I-10J500010D01*
G01*
X217700706Y-71624110D02*
G75*
G02*
X218400690Y-72323513I-6J-699990D01*
G01*
X220542839Y-68474388D02*
X220542839Y-68074388D01*
X222042839Y-67774388D02*
G75*
G02*
X222342812Y-68074388I-39J-300012D01*
G01*
X220542839Y-68074388D02*
G75*
G02*
X220842839Y-67774339I300061J-12D01*
G01*
X216924529Y-65024110D02*
G75*
G02*
X217674633Y-65052279I171J-9996590D01*
G01*
X212900110Y-65274110D02*
X212900110Y-66367003D01*
X230519787Y-74924336D02*
G75*
G02*
X230923284Y-76427070I-2596287J-1502664D01*
G01*
X218400706Y-72323513D02*
X218412791Y-86504635D01*
X230418529Y-70421530D02*
X232218529Y-70421530D01*
X229687532Y-73486326D02*
G75*
G02*
X229418510Y-72484503I1730868J1001826D01*
G01*
X230568204Y-89144815D02*
G75*
G02*
X228913786Y-90021850I-1655004J1123015D01*
G01*
X229418529Y-72484503D02*
X229418529Y-71421530D01*
X227358030Y-75515134D02*
G75*
G02*
X225262744Y-75515134I-1047643J0D01*
G01*
X225262744Y-75515134D02*
G75*
G02*
X227358030Y-75515134I1047643J0D01*
G01*
X230923291Y-88007020D02*
G75*
G02*
X230578246Y-89130026I-2000091J20D01*
G01*
X221391861Y-90023819D02*
G75*
G02*
X219709359Y-89105997I-561J2000019D01*
G01*
X221855598Y-82099325D02*
G75*
G02*
X219538140Y-82099325I-1158729J0D01*
G01*
X219538140Y-82099325D02*
G75*
G02*
X221855598Y-82099325I1158729J0D01*
G01*
X219709386Y-89105979D02*
X218730848Y-87585091D01*
X212900110Y-65274110D02*
G75*
G02*
X213150110Y-65024110I249990J10D01*
G01*
M02*
