G04 #@! TF.GenerationSoftware,KiCad,Pcbnew,8.0.0-rc2*
G04 #@! TF.CreationDate,2024-03-13T16:32:28-04:00*
G04 #@! TF.ProjectId,nandFlex,6e616e64-466c-4657-982e-6b696361645f,3*
G04 #@! TF.SameCoordinates,Original*
G04 #@! TF.FileFunction,Soldermask,Top*
G04 #@! TF.FilePolarity,Negative*
%FSLAX46Y46*%
G04 Gerber Fmt 4.6, Leading zero omitted, Abs format (unit mm)*
G04 Created by KiCad (PCBNEW 8.0.0-rc2) date 2024-03-13 16:32:28*
%MOMM*%
%LPD*%
G01*
G04 APERTURE LIST*
G04 Aperture macros list*
%AMRoundRect*
0 Rectangle with rounded corners*
0 $1 Rounding radius*
0 $2 $3 $4 $5 $6 $7 $8 $9 X,Y pos of 4 corners*
0 Add a 4 corners polygon primitive as box body*
4,1,4,$2,$3,$4,$5,$6,$7,$8,$9,$2,$3,0*
0 Add four circle primitives for the rounded corners*
1,1,$1+$1,$2,$3*
1,1,$1+$1,$4,$5*
1,1,$1+$1,$6,$7*
1,1,$1+$1,$8,$9*
0 Add four rect primitives between the rounded corners*
20,1,$1+$1,$2,$3,$4,$5,0*
20,1,$1+$1,$4,$5,$6,$7,0*
20,1,$1+$1,$6,$7,$8,$9,0*
20,1,$1+$1,$8,$9,$2,$3,0*%
G04 Aperture macros list end*
%ADD10RoundRect,0.188000X-0.047000X-0.047000X0.047000X-0.047000X0.047000X0.047000X-0.047000X0.047000X0*%
%ADD11RoundRect,0.140000X-0.140000X-0.170000X0.140000X-0.170000X0.140000X0.170000X-0.140000X0.170000X0*%
%ADD12RoundRect,0.100000X-0.025000X0.450000X-0.025000X-0.450000X0.025000X-0.450000X0.025000X0.450000X0*%
%ADD13RoundRect,0.135000X0.135000X0.185000X-0.135000X0.185000X-0.135000X-0.185000X0.135000X-0.185000X0*%
G04 APERTURE END LIST*
D10*
X215900000Y-70024100D03*
D11*
X225993291Y-67221530D03*
X226953291Y-67221530D03*
D10*
X218900110Y-68024110D03*
X216900000Y-70024100D03*
X214523291Y-66231530D03*
X217900000Y-71024100D03*
X215723291Y-65431530D03*
X216900000Y-71024100D03*
D11*
X225993291Y-89321530D03*
X226953291Y-89321530D03*
D10*
X217900000Y-70024100D03*
X214123291Y-65431530D03*
X215323291Y-66231530D03*
D12*
X232223291Y-68521530D03*
X231723291Y-68521530D03*
X231223291Y-68521530D03*
X230723291Y-68521530D03*
X230223291Y-68521530D03*
X229723291Y-68521530D03*
X229223291Y-68521530D03*
X228723291Y-68521530D03*
X228223291Y-68521530D03*
X227723291Y-68521530D03*
X227223291Y-68521530D03*
X226723291Y-68521530D03*
X226223291Y-68521530D03*
X225723291Y-68521530D03*
X225223291Y-68521530D03*
X224723291Y-68521530D03*
X224223291Y-68521530D03*
X223723291Y-68521530D03*
X223223291Y-68521530D03*
X222723291Y-68521530D03*
X220723291Y-88021530D03*
X221223291Y-88021530D03*
X221723291Y-88021530D03*
X222223291Y-88021530D03*
X222723291Y-88021530D03*
X223223291Y-88021530D03*
X223723291Y-88021530D03*
X224223291Y-88021530D03*
X224723291Y-88021530D03*
X225223291Y-88021530D03*
X225723291Y-88021530D03*
X226223291Y-88021530D03*
X226723291Y-88021530D03*
X227223291Y-88021530D03*
X227723291Y-88021530D03*
X228223291Y-88021530D03*
X228723291Y-88021530D03*
X229223291Y-88021530D03*
X229723291Y-88021530D03*
X230223291Y-88021530D03*
D10*
X216123291Y-66231530D03*
X214923291Y-65431530D03*
X216523291Y-65431530D03*
X218900110Y-69024110D03*
X213323291Y-65431530D03*
X214900000Y-71024100D03*
D13*
X231815000Y-67005000D03*
X230795000Y-67005000D03*
D10*
X215900000Y-71024100D03*
X213723291Y-66231530D03*
X214900110Y-70024110D03*
M02*
