M48
; DRILL file {KiCad 8.0.0-rc2} date 2024-01-30T10:31:40-0500
; FORMAT={-:-/ absolute / metric / decimal}
; #@! TF.CreationDate,2024-01-30T10:31:40-05:00
; #@! TF.GenerationSoftware,Kicad,Pcbnew,8.0.0-rc2
; #@! TF.FileFunction,Plated,1,2,PTH
FMAT,2
METRIC
; #@! TA.AperFunction,Plated,PTH,ViaDrill
T1C0.150
; #@! TA.AperFunction,Plated,PTH,ComponentDrill
T2C0.300
%
G90
G05
T1
X213.768Y-67.736
X214.366Y-68.956
X216.041Y-68.537
X217.719Y-68.481
X219.9Y-73.024
X219.9Y-77.024
X219.9Y-79.024
X220.145Y-85.005
X221.4Y-89.324
X221.664Y-85.943
X221.9Y-70.524
X221.9Y-78.024
X221.9Y-80.024
X223.355Y-65.855
X223.4Y-70.524
X223.5Y-89.324
X223.831Y-65.891
X224.308Y-65.927
X224.4Y-73.024
X224.784Y-65.963
X224.9Y-77.024
X224.9Y-79.024
X225.095Y-85.115
X225.23Y-67.63
X225.38Y-89.324
X225.4Y-70.524
X225.41Y-66.054
X226.9Y-71.524
X226.9Y-78.024
X226.9Y-80.024
X227.73Y-66.184
X228.205Y-66.221
X228.681Y-66.256
X228.73Y-86.864
X229.191Y-66.294
X229.22Y-86.874
X229.71Y-86.874
X229.723Y-66.734
X230.21Y-86.874
T2
X213.323Y-65.432
X213.723Y-66.232
X214.123Y-65.432
X214.523Y-66.232
X214.9Y-71.024
X214.9Y-70.024
X214.923Y-65.432
X215.323Y-66.232
X215.723Y-65.432
X215.9Y-70.024
X215.9Y-71.024
X216.123Y-66.232
X216.523Y-65.432
X216.9Y-70.024
X216.9Y-71.024
X217.9Y-70.024
X217.9Y-71.024
X218.9Y-68.024
X218.9Y-69.024
M30
