M48
; DRILL file {KiCad 8.0.0-rc2} date 2024-03-13T16:30:25-0400
; FORMAT={-:-/ absolute / inch / decimal}
; #@! TF.CreationDate,2024-03-13T16:30:25-04:00
; #@! TF.GenerationSoftware,Kicad,Pcbnew,8.0.0-rc2
; #@! TF.FileFunction,Plated,1,2,PTH
FMAT,2
INCH
; #@! TA.AperFunction,Plated,PTH,ViaDrill
T1C0.0059
; #@! TA.AperFunction,Plated,PTH,ComponentDrill
T2C0.0118
%
G90
G05
T1
X8.5055Y-2.6983
X8.5716Y-2.6961
X8.6575Y-2.875
X8.6575Y-3.0324
X8.6575Y-3.1112
X8.6671Y-3.3467
X8.7165Y-3.5167
X8.7269Y-3.3836
X8.7362Y-2.7765
X8.7362Y-3.0718
X8.7362Y-3.1506
X8.7935Y-2.5927
X8.7953Y-2.7765
X8.7992Y-3.5167
X8.8123Y-2.5942
X8.831Y-2.5956
X8.8346Y-2.875
X8.8498Y-2.597
X8.8543Y-3.0324
X8.8543Y-3.1112
X8.862Y-3.351
X8.8673Y-2.6626
X8.8732Y-3.5167
X8.874Y-2.7765
X8.8744Y-2.6006
X8.9331Y-2.8159
X8.9331Y-3.0718
X8.9331Y-3.1506
X8.9657Y-2.6057
X8.9845Y-2.6071
X9.0032Y-2.6085
X9.0051Y-3.4198
X9.0233Y-2.61
X9.0244Y-3.4202
X9.0437Y-3.4202
X9.0442Y-2.6273
X9.0634Y-3.4202
T2
X8.3986Y-2.576
X8.4143Y-2.6075
X8.4301Y-2.576
X8.4458Y-2.6075
X8.4606Y-2.7962
X8.4606Y-2.7569
X8.4615Y-2.576
X8.4773Y-2.6075
X8.493Y-2.576
X8.5Y-2.7569
X8.5Y-2.7962
X8.5088Y-2.6075
X8.5245Y-2.576
X8.5394Y-2.7569
X8.5394Y-2.7962
X8.5787Y-2.7569
X8.5787Y-2.7962
X8.6181Y-2.6781
X8.6181Y-2.7175
M30
