G04 #@! TF.GenerationSoftware,KiCad,Pcbnew,8.99.0-344-gfbc433deaa*
G04 #@! TF.CreationDate,2024-05-05T12:56:36-04:00*
G04 #@! TF.ProjectId,nandFlex,6e616e64-466c-4657-982e-6b696361645f,3*
G04 #@! TF.SameCoordinates,Original*
G04 #@! TF.FileFunction,Soldermask,Bot*
G04 #@! TF.FilePolarity,Negative*
%FSLAX46Y46*%
G04 Gerber Fmt 4.6, Leading zero omitted, Abs format (unit mm)*
G04 Created by KiCad (PCBNEW 8.99.0-344-gfbc433deaa) date 2024-05-05 12:56:36*
%MOMM*%
%LPD*%
G01*
G04 APERTURE LIST*
%ADD10C,0.235050*%
G04 APERTURE END LIST*
D10*
X213440816Y-65431530D02*
G75*
G02*
X213205766Y-65431530I-117525J0D01*
G01*
X213205766Y-65431530D02*
G75*
G02*
X213440816Y-65431530I117525J0D01*
G01*
X214640816Y-66231530D02*
G75*
G02*
X214405766Y-66231530I-117525J0D01*
G01*
X214405766Y-66231530D02*
G75*
G02*
X214640816Y-66231530I117525J0D01*
G01*
X213840816Y-66231530D02*
G75*
G02*
X213605766Y-66231530I-117525J0D01*
G01*
X213605766Y-66231530D02*
G75*
G02*
X213840816Y-66231530I117525J0D01*
G01*
X215840816Y-65431530D02*
G75*
G02*
X215605766Y-65431530I-117525J0D01*
G01*
X215605766Y-65431530D02*
G75*
G02*
X215840816Y-65431530I117525J0D01*
G01*
X216240816Y-66231530D02*
G75*
G02*
X216005766Y-66231530I-117525J0D01*
G01*
X216005766Y-66231530D02*
G75*
G02*
X216240816Y-66231530I117525J0D01*
G01*
X216640816Y-65431530D02*
G75*
G02*
X216405766Y-65431530I-117525J0D01*
G01*
X216405766Y-65431530D02*
G75*
G02*
X216640816Y-65431530I117525J0D01*
G01*
X214240816Y-65431530D02*
G75*
G02*
X214005766Y-65431530I-117525J0D01*
G01*
X214005766Y-65431530D02*
G75*
G02*
X214240816Y-65431530I117525J0D01*
G01*
X215040816Y-65431530D02*
G75*
G02*
X214805766Y-65431530I-117525J0D01*
G01*
X214805766Y-65431530D02*
G75*
G02*
X215040816Y-65431530I117525J0D01*
G01*
X215440816Y-66231530D02*
G75*
G02*
X215205766Y-66231530I-117525J0D01*
G01*
X215205766Y-66231530D02*
G75*
G02*
X215440816Y-66231530I117525J0D01*
G01*
X219017635Y-69024110D02*
G75*
G02*
X218782585Y-69024110I-117525J0D01*
G01*
X218782585Y-69024110D02*
G75*
G02*
X219017635Y-69024110I117525J0D01*
G01*
X219017635Y-68024110D02*
G75*
G02*
X218782585Y-68024110I-117525J0D01*
G01*
X218782585Y-68024110D02*
G75*
G02*
X219017635Y-68024110I117525J0D01*
G01*
X216017575Y-71024050D02*
G75*
G02*
X215782525Y-71024050I-117525J0D01*
G01*
X215782525Y-71024050D02*
G75*
G02*
X216017575Y-71024050I117525J0D01*
G01*
X215017575Y-71024050D02*
G75*
G02*
X214782525Y-71024050I-117525J0D01*
G01*
X214782525Y-71024050D02*
G75*
G02*
X215017575Y-71024050I117525J0D01*
G01*
X216017525Y-70024100D02*
G75*
G02*
X215782475Y-70024100I-117525J0D01*
G01*
X215782475Y-70024100D02*
G75*
G02*
X216017525Y-70024100I117525J0D01*
G01*
X217017525Y-70024100D02*
G75*
G02*
X216782475Y-70024100I-117525J0D01*
G01*
X216782475Y-70024100D02*
G75*
G02*
X217017525Y-70024100I117525J0D01*
G01*
X215017635Y-70024110D02*
G75*
G02*
X214782585Y-70024110I-117525J0D01*
G01*
X214782585Y-70024110D02*
G75*
G02*
X215017635Y-70024110I117525J0D01*
G01*
X218017585Y-70024160D02*
G75*
G02*
X217782535Y-70024160I-117525J0D01*
G01*
X217782535Y-70024160D02*
G75*
G02*
X218017585Y-70024160I117525J0D01*
G01*
X218017525Y-71024100D02*
G75*
G02*
X217782475Y-71024100I-117525J0D01*
G01*
X217782475Y-71024100D02*
G75*
G02*
X218017525Y-71024100I117525J0D01*
G01*
X217017525Y-71024100D02*
G75*
G02*
X216782475Y-71024100I-117525J0D01*
G01*
X216782475Y-71024100D02*
G75*
G02*
X217017525Y-71024100I117525J0D01*
G01*
M02*
