G04 #@! TF.GenerationSoftware,KiCad,Pcbnew,8.99.0-344-gfbc433deaa*
G04 #@! TF.CreationDate,2024-05-05T12:56:36-04:00*
G04 #@! TF.ProjectId,nandFlex,6e616e64-466c-4657-982e-6b696361645f,3*
G04 #@! TF.SameCoordinates,Original*
G04 #@! TF.FileFunction,Copper,L2,Bot*
G04 #@! TF.FilePolarity,Positive*
%FSLAX46Y46*%
G04 Gerber Fmt 4.6, Leading zero omitted, Abs format (unit mm)*
G04 Created by KiCad (PCBNEW 8.99.0-344-gfbc433deaa) date 2024-05-05 12:56:36*
%MOMM*%
%LPD*%
G01*
G04 APERTURE LIST*
G04 #@! TA.AperFunction,ViaPad*
%ADD10C,0.470000*%
G04 #@! TD*
G04 #@! TA.AperFunction,ViaPad*
%ADD11C,0.350000*%
G04 #@! TD*
G04 #@! TA.AperFunction,Conductor*
%ADD12C,0.088900*%
G04 #@! TD*
G04 APERTURE END LIST*
D10*
X218900110Y-69024110D03*
X218900110Y-68024110D03*
X214900050Y-71024050D03*
X215900050Y-71024050D03*
X216900000Y-71024100D03*
X217900000Y-71024100D03*
X217900060Y-70024160D03*
X216900000Y-70024100D03*
X215900000Y-70024100D03*
X214900110Y-70024110D03*
X213723291Y-66231530D03*
X214523291Y-66231530D03*
X215323291Y-66231530D03*
X216123291Y-66231530D03*
X216523291Y-65431530D03*
X215723291Y-65431530D03*
X214923291Y-65431530D03*
X214123291Y-65431530D03*
X213323291Y-65431530D03*
D11*
X229723291Y-66734110D03*
X229190662Y-66293603D03*
X228681142Y-66256275D03*
X228205481Y-66220531D03*
X227729885Y-66183930D03*
X224784021Y-65963127D03*
X224308362Y-65927346D03*
X223831165Y-65891495D03*
X223355371Y-65854663D03*
X228730110Y-86864110D03*
X229220110Y-86874110D03*
X229710110Y-86874110D03*
X230210110Y-86874110D03*
X224900110Y-77024110D03*
X221900110Y-70524110D03*
X221664424Y-85943039D03*
X223500110Y-89324110D03*
X224400110Y-73024110D03*
X226900110Y-71524110D03*
X224900110Y-79024110D03*
X219900110Y-77024110D03*
X216040624Y-68536505D03*
X219900110Y-73024110D03*
X217719256Y-68480991D03*
X225380110Y-89324110D03*
X225095432Y-85114964D03*
X221400110Y-89324110D03*
X226900110Y-80024110D03*
X223400110Y-70524110D03*
X219900110Y-79024110D03*
X225410110Y-66054110D03*
X225229839Y-67630256D03*
X221900110Y-78024110D03*
X226900110Y-78024110D03*
X225400110Y-70524110D03*
X221900110Y-80024110D03*
X220145105Y-85005167D03*
D12*
X214900050Y-71024050D02*
X215430110Y-70493990D01*
X215900050Y-71024050D02*
X216399990Y-70524110D01*
X213323291Y-66457291D02*
X213323291Y-65431530D01*
X216981496Y-67923380D02*
X214789380Y-67923380D01*
X222246892Y-67373441D02*
X218134689Y-67064110D01*
X228730110Y-67244110D02*
X225030110Y-67244110D01*
X225030110Y-67244110D02*
X224560729Y-67713491D01*
X224560729Y-67713491D02*
X222586943Y-67713491D01*
X222586943Y-67713491D02*
X222246892Y-67373441D01*
X218134689Y-67064110D02*
X217840766Y-67064110D01*
X229240110Y-66734110D02*
X228730110Y-67244110D01*
X217840766Y-67064110D02*
X216981496Y-67923380D01*
X214789380Y-67923380D02*
X213323291Y-66457291D01*
X229723291Y-66734110D02*
X229240110Y-66734110D01*
X224471301Y-67497591D02*
X222676372Y-67497591D01*
X217822413Y-66824110D02*
X217775438Y-66824110D01*
X228416010Y-67028210D02*
X224940681Y-67028210D01*
X213723291Y-66437291D02*
X213723291Y-66231530D01*
X217775438Y-66824110D02*
X216892068Y-67707480D01*
X222342934Y-67164154D02*
X217822413Y-66824110D01*
X214993480Y-67707480D02*
X213723291Y-66437291D01*
X229150617Y-66293603D02*
X228416010Y-67028210D01*
X229190662Y-66293603D02*
X229150617Y-66293603D01*
X224940681Y-67028210D02*
X224471301Y-67497591D01*
X222676372Y-67497591D02*
X222342934Y-67164154D01*
X216892068Y-67707480D02*
X214993480Y-67707480D01*
X217680110Y-66597055D02*
X217680248Y-66596917D01*
X217680248Y-66596917D02*
X217680791Y-66596947D01*
X228131910Y-66812310D02*
X228681142Y-66263078D01*
X222765800Y-67281691D02*
X224381872Y-67281691D01*
X217680791Y-66596947D02*
X222438978Y-66954868D01*
X224381872Y-67281691D02*
X224851252Y-66812310D01*
X214123291Y-65431530D02*
X214123291Y-66457291D01*
X214123291Y-66457291D02*
X215157580Y-67491580D01*
X216802640Y-67491580D02*
X217680110Y-66614110D01*
X215157580Y-67491580D02*
X216802640Y-67491580D01*
X222438978Y-66954868D02*
X222765800Y-67281691D01*
X224851252Y-66812310D02*
X228131910Y-66812310D01*
X217680110Y-66614110D02*
X217680110Y-66597055D01*
X228681142Y-66263078D02*
X228681142Y-66256275D01*
X216694526Y-67275680D02*
X217594250Y-66375955D01*
X222855229Y-67065791D02*
X224292445Y-67065791D01*
X217694821Y-66381492D02*
X222535022Y-66745583D01*
X224761823Y-66596410D02*
X227837810Y-66596410D01*
X215301680Y-67275680D02*
X216694526Y-67275680D01*
X224292445Y-67065791D02*
X224761823Y-66596410D01*
X214523291Y-66231530D02*
X214523291Y-66497291D01*
X214523291Y-66497291D02*
X215301680Y-67275680D01*
X217594250Y-66375955D02*
X217694821Y-66381492D01*
X228205481Y-66228739D02*
X228205481Y-66220531D01*
X227837810Y-66596410D02*
X228205481Y-66228739D01*
X222535022Y-66745583D02*
X222855229Y-67065791D01*
X224203302Y-66849891D02*
X224679082Y-66374110D01*
X217509797Y-66155079D02*
X217708850Y-66166037D01*
X227730110Y-66184155D02*
X227729885Y-66183930D01*
X215559531Y-67059780D02*
X216605097Y-67059780D01*
X214923291Y-65431530D02*
X214923291Y-66423540D01*
X222631065Y-66536297D02*
X222944658Y-66849891D01*
X227730110Y-66204110D02*
X227730110Y-66184155D01*
X216605097Y-67059780D02*
X217509797Y-66155079D01*
X217708850Y-66166037D02*
X222631065Y-66536297D01*
X214923291Y-66423540D02*
X215559531Y-67059780D01*
X227560110Y-66374110D02*
X227730110Y-66204110D01*
X224679082Y-66374110D02*
X227560110Y-66374110D01*
X222944658Y-66849891D02*
X224203302Y-66849891D01*
X215323291Y-66427291D02*
X215323291Y-66231530D01*
X223034087Y-66633991D02*
X222727108Y-66327012D01*
X216515668Y-66843880D02*
X215739880Y-66843880D01*
X217722879Y-65950582D02*
X217456092Y-65935895D01*
X224784071Y-65963177D02*
X224784687Y-65963177D01*
X224784021Y-65963127D02*
X224784071Y-65963177D01*
X222727108Y-66327012D02*
X217722879Y-65950582D01*
X217456092Y-65935895D02*
X217423653Y-65935895D01*
X215739880Y-66843880D02*
X215323291Y-66427291D01*
X224113873Y-66633991D02*
X223034087Y-66633991D01*
X217423653Y-65935895D02*
X216515668Y-66843880D01*
X224784687Y-65963177D02*
X224113873Y-66633991D01*
X215913980Y-66627980D02*
X215723291Y-66437291D01*
X223123515Y-66418091D02*
X222823150Y-66117726D01*
X223818409Y-66418091D02*
X223123515Y-66418091D01*
X222823150Y-66117726D02*
X217736903Y-65735127D01*
X224309098Y-65927402D02*
X223818409Y-66418091D01*
X224309098Y-65927402D02*
X224308418Y-65927402D01*
X224308418Y-65927402D02*
X224308362Y-65927346D01*
X215723291Y-66437291D02*
X215723291Y-65431530D01*
X217334225Y-65719995D02*
X216426240Y-66627980D01*
X217736903Y-65735127D02*
X217462037Y-65719995D01*
X217462037Y-65719995D02*
X217334225Y-65719995D01*
X216426240Y-66627980D02*
X215913980Y-66627980D01*
X223523041Y-66202191D02*
X223212943Y-66202191D01*
X222919192Y-65908440D02*
X217750928Y-65519672D01*
X223212943Y-66202191D02*
X222919192Y-65908440D01*
X217467983Y-65504095D02*
X217240125Y-65504095D01*
X223833598Y-65891634D02*
X223523041Y-66202191D01*
X216512690Y-66231530D02*
X216123291Y-66231530D01*
X223833598Y-65891634D02*
X223831304Y-65891634D01*
X223831304Y-65891634D02*
X223831165Y-65891495D01*
X217240125Y-65504095D02*
X216512690Y-66231530D01*
X217750928Y-65519672D02*
X217467983Y-65504095D01*
X216942690Y-65431530D02*
X216523291Y-65431530D01*
X223214880Y-65714173D02*
X217764949Y-65304216D01*
X223355371Y-65854663D02*
X223214880Y-65714173D01*
X217086025Y-65288195D02*
X216942690Y-65431530D01*
X217764949Y-65304216D02*
X217473925Y-65288195D01*
X217473925Y-65288195D02*
X217086025Y-65288195D01*
X216399990Y-70524110D02*
X218720110Y-70524110D01*
X225110110Y-71934110D02*
X228730110Y-75554110D01*
X220960110Y-71934110D02*
X225110110Y-71934110D01*
X228730110Y-75554110D02*
X228730110Y-86864110D01*
X218720110Y-70524110D02*
X219006010Y-70810010D01*
X219836010Y-70810010D02*
X220960110Y-71934110D01*
X215900000Y-71024100D02*
X215900050Y-71024050D01*
X219006010Y-70810010D02*
X219836010Y-70810010D01*
X225194210Y-71718210D02*
X229220110Y-75744110D01*
X219925438Y-70594110D02*
X221049538Y-71718210D01*
X219110110Y-70594110D02*
X219925438Y-70594110D01*
X215900000Y-70024100D02*
X216296450Y-69627650D01*
X216296450Y-69627650D02*
X218143650Y-69627650D01*
X229220110Y-75744110D02*
X229220110Y-86874110D01*
X221049538Y-71718210D02*
X225194210Y-71718210D01*
X218143650Y-69627650D02*
X219110110Y-70594110D01*
X229710110Y-75934110D02*
X229710110Y-86874110D01*
X221138966Y-71502310D02*
X225278310Y-71502310D01*
X215430110Y-70493990D02*
X215430110Y-69754110D01*
X218233078Y-69411750D02*
X219195438Y-70374110D01*
X220010766Y-70374110D02*
X221138966Y-71502310D01*
X219195438Y-70374110D02*
X220010766Y-70374110D01*
X225278310Y-71502310D02*
X229710110Y-75934110D01*
X215430110Y-69754110D02*
X215772470Y-69411750D01*
X215772470Y-69411750D02*
X218233078Y-69411750D01*
X214900000Y-71024100D02*
X214900050Y-71024050D01*
X225362410Y-71286410D02*
X221228394Y-71286410D01*
X230210110Y-86874110D02*
X230210110Y-76134110D01*
X230210110Y-76134110D02*
X225362410Y-71286410D01*
X219260767Y-70134110D02*
X218322507Y-69195850D01*
X218322507Y-69195850D02*
X215503370Y-69195850D01*
X220076094Y-70134110D02*
X219260767Y-70134110D01*
X221228394Y-71286410D02*
X220076094Y-70134110D01*
X215503370Y-69195850D02*
X214900110Y-69799110D01*
X214900110Y-69799110D02*
X214900110Y-70024110D01*
G04 #@! TA.AperFunction,Conductor*
G36*
X232275580Y-66351664D02*
G01*
X232281347Y-66352370D01*
X232419861Y-66375947D01*
X232431120Y-66378968D01*
X232560064Y-66426849D01*
X232570567Y-66431911D01*
X232683742Y-66500141D01*
X232688355Y-66502922D01*
X232697741Y-66509852D01*
X232800274Y-66601516D01*
X232808209Y-66610071D01*
X232891922Y-66719203D01*
X232898128Y-66729082D01*
X232952730Y-66837274D01*
X232960094Y-66851864D01*
X232964356Y-66862727D01*
X233002420Y-66994894D01*
X233004588Y-67006359D01*
X233017755Y-67146857D01*
X233018028Y-67152689D01*
X233018028Y-67196279D01*
X233018029Y-67196288D01*
X233018029Y-69418451D01*
X233017728Y-69424579D01*
X233003266Y-69571375D01*
X233000875Y-69583391D01*
X232958951Y-69721584D01*
X232954263Y-69732903D01*
X232886182Y-69860271D01*
X232879375Y-69870458D01*
X232787757Y-69982094D01*
X232779094Y-69990757D01*
X232667457Y-70082375D01*
X232657270Y-70089182D01*
X232529902Y-70157263D01*
X232518583Y-70161951D01*
X232380390Y-70203875D01*
X232368374Y-70206266D01*
X232314856Y-70211538D01*
X232221564Y-70220729D01*
X232215444Y-70221030D01*
X230444422Y-70221030D01*
X230418535Y-70221029D01*
X230324071Y-70221027D01*
X230324055Y-70221027D01*
X230324049Y-70221027D01*
X230137412Y-70250583D01*
X230137409Y-70250583D01*
X229957701Y-70308969D01*
X229957696Y-70308971D01*
X229789323Y-70394760D01*
X229636445Y-70505831D01*
X229502835Y-70639441D01*
X229502831Y-70639446D01*
X229391759Y-70792326D01*
X229391757Y-70792329D01*
X229305971Y-70960697D01*
X229305969Y-70960702D01*
X229247583Y-71140410D01*
X229247583Y-71140413D01*
X229218027Y-71327050D01*
X229218027Y-71327056D01*
X229218029Y-71399882D01*
X229218029Y-72458597D01*
X229218008Y-72458649D01*
X229218022Y-72600056D01*
X229218023Y-72600065D01*
X229225703Y-72672978D01*
X229242231Y-72829901D01*
X229286704Y-73038683D01*
X229290382Y-73055947D01*
X229361934Y-73275677D01*
X229361939Y-73275689D01*
X229456126Y-73486744D01*
X229491310Y-73547547D01*
X229491330Y-73547590D01*
X230300140Y-74945092D01*
X230326277Y-74990252D01*
X230326278Y-74990254D01*
X230345438Y-75023357D01*
X230346998Y-75026224D01*
X230478314Y-75283339D01*
X230480985Y-75289326D01*
X230584051Y-75557227D01*
X230586081Y-75563460D01*
X230656424Y-75825440D01*
X230660520Y-75840692D01*
X230661885Y-75847101D01*
X230666146Y-75873946D01*
X230706878Y-76130616D01*
X230707564Y-76137136D01*
X230722704Y-76425561D01*
X230722790Y-76428837D01*
X230722790Y-76474218D01*
X230722791Y-76474227D01*
X230722791Y-88005153D01*
X230722680Y-88008878D01*
X230710234Y-88217359D01*
X230709348Y-88224753D01*
X230672524Y-88428434D01*
X230670765Y-88435672D01*
X230609972Y-88633530D01*
X230607364Y-88640505D01*
X230523468Y-88829728D01*
X230520049Y-88836345D01*
X230413332Y-89015769D01*
X230411338Y-89018905D01*
X230407557Y-89024479D01*
X230407545Y-89024497D01*
X230403356Y-89030668D01*
X230401131Y-89033740D01*
X230270836Y-89202639D01*
X230265832Y-89208369D01*
X230117319Y-89358833D01*
X230111655Y-89363912D01*
X229945968Y-89495214D01*
X229939730Y-89499567D01*
X229759315Y-89609770D01*
X229752594Y-89613333D01*
X229560126Y-89700802D01*
X229553021Y-89703522D01*
X229351358Y-89766958D01*
X229343976Y-89768795D01*
X229136092Y-89807263D01*
X229128542Y-89808189D01*
X228916240Y-89821195D01*
X228912435Y-89821312D01*
X221431688Y-89823308D01*
X221431687Y-89823308D01*
X221393752Y-89823318D01*
X221389852Y-89823197D01*
X221171495Y-89809602D01*
X221163754Y-89808632D01*
X220950708Y-89768300D01*
X220943147Y-89766373D01*
X220748286Y-89703522D01*
X220736788Y-89699813D01*
X220729531Y-89696961D01*
X220550470Y-89613333D01*
X220533071Y-89605207D01*
X220526222Y-89601471D01*
X220342722Y-89485952D01*
X220336392Y-89481391D01*
X220168725Y-89343920D01*
X220163011Y-89338606D01*
X220013770Y-89181304D01*
X220008764Y-89175320D01*
X219879436Y-88999497D01*
X219877222Y-88996282D01*
X218925906Y-87517705D01*
X218925904Y-87517700D01*
X218900431Y-87478109D01*
X218898587Y-87475055D01*
X218834759Y-87362182D01*
X218800142Y-87300964D01*
X218796996Y-87294577D01*
X218719718Y-87112035D01*
X218717326Y-87105343D01*
X218661358Y-86915208D01*
X218659737Y-86908263D01*
X218654896Y-86880411D01*
X218625790Y-86712965D01*
X218624976Y-86705915D01*
X218613393Y-86506107D01*
X218613289Y-86502546D01*
X218613283Y-86495739D01*
X218613258Y-86464589D01*
X218613254Y-86459573D01*
X218613252Y-86459562D01*
X218609537Y-82099325D01*
X219332982Y-82099325D01*
X219351584Y-82323813D01*
X219406881Y-82542178D01*
X219406882Y-82542180D01*
X219497367Y-82748465D01*
X219497369Y-82748468D01*
X219620570Y-82937040D01*
X219620573Y-82937045D01*
X219773134Y-83102770D01*
X219773137Y-83102773D01*
X219950892Y-83241124D01*
X219950894Y-83241125D01*
X220149002Y-83348336D01*
X220362055Y-83421477D01*
X220584240Y-83458554D01*
X220584246Y-83458554D01*
X220809492Y-83458554D01*
X220809498Y-83458554D01*
X221031683Y-83421477D01*
X221244736Y-83348336D01*
X221442844Y-83241125D01*
X221620605Y-83102769D01*
X221773167Y-82937042D01*
X221896372Y-82748463D01*
X221937149Y-82655501D01*
X224874245Y-82655501D01*
X224893411Y-82886806D01*
X224893413Y-82886816D01*
X224950384Y-83111788D01*
X224950386Y-83111796D01*
X224950388Y-83111801D01*
X225043621Y-83324350D01*
X225170566Y-83518654D01*
X225170569Y-83518657D01*
X225327762Y-83689415D01*
X225327765Y-83689418D01*
X225510917Y-83831970D01*
X225510919Y-83831971D01*
X225715042Y-83942437D01*
X225934564Y-84017799D01*
X226163496Y-84056001D01*
X226163499Y-84056001D01*
X226395591Y-84056001D01*
X226395594Y-84056001D01*
X226624526Y-84017799D01*
X226844048Y-83942437D01*
X227048171Y-83831971D01*
X227231329Y-83689414D01*
X227388524Y-83518654D01*
X227515469Y-83324350D01*
X227608702Y-83111801D01*
X227665679Y-82886806D01*
X227684845Y-82655501D01*
X227665679Y-82424196D01*
X227608702Y-82199201D01*
X227515469Y-81986652D01*
X227388524Y-81792348D01*
X227231329Y-81621588D01*
X227231328Y-81621587D01*
X227231327Y-81621586D01*
X227231324Y-81621583D01*
X227048172Y-81479031D01*
X227048170Y-81479030D01*
X226942334Y-81421755D01*
X226844048Y-81368565D01*
X226624526Y-81293203D01*
X226395594Y-81255001D01*
X226163496Y-81255001D01*
X225991797Y-81283652D01*
X225934563Y-81293203D01*
X225715042Y-81368565D01*
X225650841Y-81403308D01*
X225510919Y-81479030D01*
X225510917Y-81479031D01*
X225327765Y-81621583D01*
X225327762Y-81621586D01*
X225170569Y-81792344D01*
X225170565Y-81792349D01*
X225043624Y-81986646D01*
X225043622Y-81986649D01*
X224950389Y-82199198D01*
X224950384Y-82199213D01*
X224893413Y-82424185D01*
X224893411Y-82424195D01*
X224874245Y-82655501D01*
X221937149Y-82655501D01*
X221986857Y-82542178D01*
X222042154Y-82323813D01*
X222060756Y-82099325D01*
X222042154Y-81874837D01*
X221986857Y-81656472D01*
X221896372Y-81450187D01*
X221773167Y-81261608D01*
X221773165Y-81261606D01*
X221773164Y-81261604D01*
X221620603Y-81095879D01*
X221620600Y-81095876D01*
X221442845Y-80957525D01*
X221442843Y-80957524D01*
X221244736Y-80850314D01*
X221031683Y-80777173D01*
X220809499Y-80740096D01*
X220809498Y-80740096D01*
X220584240Y-80740096D01*
X220584238Y-80740096D01*
X220362054Y-80777173D01*
X220149002Y-80850314D01*
X220149001Y-80850314D01*
X219950894Y-80957524D01*
X219950892Y-80957525D01*
X219773137Y-81095876D01*
X219773134Y-81095879D01*
X219620573Y-81261604D01*
X219620570Y-81261609D01*
X219497369Y-81450181D01*
X219497367Y-81450184D01*
X219407088Y-81656001D01*
X219406881Y-81656472D01*
X219351584Y-81874837D01*
X219332982Y-82099325D01*
X218609537Y-82099325D01*
X218604475Y-76158939D01*
X218603740Y-75296676D01*
X219733272Y-75296676D01*
X219753651Y-75529610D01*
X219753654Y-75529626D01*
X219814169Y-75755472D01*
X219814170Y-75755474D01*
X219912991Y-75967396D01*
X220047111Y-76158940D01*
X220212451Y-76324280D01*
X220260089Y-76357636D01*
X220403995Y-76458400D01*
X220403994Y-76458400D01*
X220509955Y-76507810D01*
X220615916Y-76557221D01*
X220615918Y-76557221D01*
X220615919Y-76557222D01*
X220841765Y-76617737D01*
X220841771Y-76617738D01*
X220841778Y-76617740D01*
X220981542Y-76629968D01*
X221074716Y-76638120D01*
X221074718Y-76638120D01*
X221074720Y-76638120D01*
X221152364Y-76631326D01*
X221307658Y-76617740D01*
X221307667Y-76617737D01*
X221307670Y-76617737D01*
X221533516Y-76557222D01*
X221533515Y-76557222D01*
X221533520Y-76557221D01*
X221745441Y-76458400D01*
X221936983Y-76324281D01*
X222102325Y-76158939D01*
X222236444Y-75967397D01*
X222335265Y-75755476D01*
X222386715Y-75563460D01*
X222395781Y-75529626D01*
X222395781Y-75529623D01*
X222395784Y-75529614D01*
X222397051Y-75515136D01*
X225057476Y-75515136D01*
X225076510Y-75732696D01*
X225076513Y-75732712D01*
X225133035Y-75943655D01*
X225225333Y-76141589D01*
X225350601Y-76320491D01*
X225505029Y-76474919D01*
X225570115Y-76520492D01*
X225683931Y-76600187D01*
X225683930Y-76600187D01*
X225881865Y-76692485D01*
X226092808Y-76749007D01*
X226092814Y-76749008D01*
X226092821Y-76749010D01*
X226223360Y-76760431D01*
X226310385Y-76768045D01*
X226310387Y-76768045D01*
X226310389Y-76768045D01*
X226382909Y-76761700D01*
X226527953Y-76749010D01*
X226527962Y-76749007D01*
X226527965Y-76749007D01*
X226738908Y-76692485D01*
X226936843Y-76600187D01*
X227115743Y-76474920D01*
X227270173Y-76320490D01*
X227395440Y-76141590D01*
X227487738Y-75943655D01*
X227510234Y-75859698D01*
X227544260Y-75732712D01*
X227544260Y-75732709D01*
X227544263Y-75732700D01*
X227562031Y-75529614D01*
X227563298Y-75515136D01*
X227563298Y-75515131D01*
X227544263Y-75297571D01*
X227544263Y-75297568D01*
X227544023Y-75296674D01*
X227487741Y-75086623D01*
X227487739Y-75086620D01*
X227487738Y-75086613D01*
X227421746Y-74945092D01*
X227395442Y-74888682D01*
X227395440Y-74888680D01*
X227395440Y-74888679D01*
X227270173Y-74709778D01*
X227270172Y-74709776D01*
X227115744Y-74555348D01*
X226943021Y-74434407D01*
X226936843Y-74430081D01*
X226936841Y-74430080D01*
X226936843Y-74430080D01*
X226738908Y-74337782D01*
X226527965Y-74281260D01*
X226527949Y-74281257D01*
X226310389Y-74262223D01*
X226310385Y-74262223D01*
X226092824Y-74281257D01*
X226092808Y-74281260D01*
X225881876Y-74337779D01*
X225881860Y-74337785D01*
X225683935Y-74430078D01*
X225683933Y-74430080D01*
X225505029Y-74555348D01*
X225350601Y-74709776D01*
X225225333Y-74888680D01*
X225225331Y-74888682D01*
X225133038Y-75086607D01*
X225133032Y-75086623D01*
X225076513Y-75297555D01*
X225076510Y-75297571D01*
X225057476Y-75515131D01*
X225057476Y-75515136D01*
X222397051Y-75515136D01*
X222416164Y-75296674D01*
X222414997Y-75283339D01*
X222399150Y-75102206D01*
X222395784Y-75063734D01*
X222385733Y-75026224D01*
X222335266Y-74837875D01*
X222335265Y-74837873D01*
X222236444Y-74625951D01*
X222102324Y-74434407D01*
X221936984Y-74269067D01*
X221815124Y-74183740D01*
X221745441Y-74134948D01*
X221745439Y-74134947D01*
X221745441Y-74134947D01*
X221533518Y-74036126D01*
X221533516Y-74036125D01*
X221307670Y-73975610D01*
X221307654Y-73975607D01*
X221074720Y-73955228D01*
X221074716Y-73955228D01*
X220841781Y-73975607D01*
X220841765Y-73975610D01*
X220615919Y-74036125D01*
X220615917Y-74036126D01*
X220403995Y-74134947D01*
X220212451Y-74269067D01*
X220047111Y-74434407D01*
X219912991Y-74625951D01*
X219814170Y-74837873D01*
X219814169Y-74837875D01*
X219753654Y-75063721D01*
X219753651Y-75063737D01*
X219733272Y-75296671D01*
X219733272Y-75296676D01*
X218603740Y-75296676D01*
X218601167Y-72277248D01*
X218601153Y-72277109D01*
X218601120Y-72234706D01*
X218601120Y-72234702D01*
X218566406Y-72060848D01*
X218563378Y-72053551D01*
X218498459Y-71897101D01*
X218498459Y-71897100D01*
X218399888Y-71749744D01*
X218395030Y-71744890D01*
X218274480Y-71624439D01*
X218274475Y-71624435D01*
X218127036Y-71525986D01*
X218127031Y-71525984D01*
X217967970Y-71460136D01*
X217934138Y-71426318D01*
X217934129Y-71378483D01*
X217967947Y-71344651D01*
X217970454Y-71343675D01*
X218064702Y-71309372D01*
X218152338Y-71235837D01*
X218209539Y-71136763D01*
X218229404Y-71024100D01*
X218209539Y-70911437D01*
X218209538Y-70911435D01*
X218209538Y-70911434D01*
X218209537Y-70911433D01*
X218152337Y-70812362D01*
X218099871Y-70768338D01*
X218077783Y-70725907D01*
X218092167Y-70680286D01*
X218134598Y-70658198D01*
X218140045Y-70657960D01*
X218638780Y-70657960D01*
X218682974Y-70676266D01*
X218892538Y-70885830D01*
X218930190Y-70923482D01*
X218930191Y-70923482D01*
X218930193Y-70923484D01*
X218979383Y-70943859D01*
X218979386Y-70943860D01*
X219754680Y-70943860D01*
X219798873Y-70962165D01*
X220884289Y-72047582D01*
X220898698Y-72053550D01*
X220933486Y-72067960D01*
X225028780Y-72067960D01*
X225072974Y-72086266D01*
X228577954Y-75591246D01*
X228596260Y-75635440D01*
X228596260Y-86488480D01*
X228593756Y-86505993D01*
X228590684Y-86516516D01*
X228586800Y-86560691D01*
X228583462Y-86576060D01*
X228578216Y-86590890D01*
X228572051Y-86603557D01*
X228556375Y-86628237D01*
X228555535Y-86629524D01*
X228525115Y-86674910D01*
X228521978Y-86679924D01*
X228521247Y-86681179D01*
X228518449Y-86686340D01*
X228489694Y-86743579D01*
X228488267Y-86746545D01*
X228486575Y-86750223D01*
X228486371Y-86750129D01*
X228481058Y-86760934D01*
X228481052Y-86760942D01*
X228460530Y-86864110D01*
X228481050Y-86967273D01*
X228481051Y-86967275D01*
X228487733Y-86977275D01*
X228539488Y-87054732D01*
X228604932Y-87098460D01*
X228626944Y-87113168D01*
X228626946Y-87113169D01*
X228730109Y-87133690D01*
X228730110Y-87133690D01*
X228730111Y-87133690D01*
X228783007Y-87123168D01*
X228833274Y-87113169D01*
X228920732Y-87054732D01*
X228920734Y-87054728D01*
X228925085Y-87050379D01*
X228926412Y-87051706D01*
X228959572Y-87029548D01*
X229006489Y-87038877D01*
X229023735Y-87056122D01*
X229029488Y-87064732D01*
X229090252Y-87105333D01*
X229116944Y-87123168D01*
X229116946Y-87123169D01*
X229220109Y-87143690D01*
X229220110Y-87143690D01*
X229220111Y-87143690D01*
X229271692Y-87133429D01*
X229323274Y-87123169D01*
X229410732Y-87064732D01*
X229413143Y-87061124D01*
X229452916Y-87034547D01*
X229499832Y-87043879D01*
X229517077Y-87061124D01*
X229519487Y-87064731D01*
X229606944Y-87123168D01*
X229606946Y-87123169D01*
X229710109Y-87143690D01*
X229710110Y-87143690D01*
X229710111Y-87143690D01*
X229761692Y-87133429D01*
X229813274Y-87123169D01*
X229900732Y-87064732D01*
X229908143Y-87053639D01*
X229947916Y-87027064D01*
X229994833Y-87036396D01*
X230012075Y-87053638D01*
X230019488Y-87064732D01*
X230080252Y-87105333D01*
X230106944Y-87123168D01*
X230106946Y-87123169D01*
X230210109Y-87143690D01*
X230210110Y-87143690D01*
X230210111Y-87143690D01*
X230261692Y-87133429D01*
X230313274Y-87123169D01*
X230400732Y-87064732D01*
X230459169Y-86977274D01*
X230479690Y-86874110D01*
X230459169Y-86770946D01*
X230458204Y-86769501D01*
X230452141Y-86756238D01*
X230451624Y-86756438D01*
X230450524Y-86753581D01*
X230450522Y-86753577D01*
X230450521Y-86753573D01*
X230421767Y-86696341D01*
X230418944Y-86691135D01*
X230418208Y-86689874D01*
X230415096Y-86684904D01*
X230415086Y-86684888D01*
X230384682Y-86639525D01*
X230383876Y-86638290D01*
X230368166Y-86613557D01*
X230362005Y-86600898D01*
X230362002Y-86600890D01*
X230356754Y-86586055D01*
X230353418Y-86570691D01*
X230349535Y-86526518D01*
X230346094Y-86513696D01*
X230343960Y-86497500D01*
X230343960Y-76107486D01*
X230343959Y-76107483D01*
X230323584Y-76058293D01*
X230323580Y-76058288D01*
X225438231Y-71172939D01*
X225438226Y-71172935D01*
X225389036Y-71152560D01*
X225389034Y-71152560D01*
X221309724Y-71152560D01*
X221265530Y-71134254D01*
X220151915Y-70020639D01*
X220151910Y-70020635D01*
X220102720Y-70000260D01*
X220102718Y-70000260D01*
X219342097Y-70000260D01*
X219297903Y-69981954D01*
X218398328Y-69082379D01*
X218398323Y-69082375D01*
X218349133Y-69062000D01*
X218349131Y-69062000D01*
X215476746Y-69062000D01*
X215441958Y-69076409D01*
X215431768Y-69080630D01*
X215427546Y-69082379D01*
X214824291Y-69685637D01*
X214824289Y-69685639D01*
X214801304Y-69708622D01*
X214778493Y-69723155D01*
X214774491Y-69724612D01*
X214726701Y-69722530D01*
X214694381Y-69687264D01*
X214690610Y-69665883D01*
X214690610Y-68532231D01*
X214690590Y-68532035D01*
X214690590Y-68530775D01*
X214690592Y-68483848D01*
X214661037Y-68297213D01*
X214602649Y-68117499D01*
X214582799Y-68078540D01*
X214579047Y-68030853D01*
X214610115Y-67994480D01*
X214657803Y-67990727D01*
X214682682Y-68005974D01*
X214713560Y-68036852D01*
X214713561Y-68036852D01*
X214713563Y-68036854D01*
X214762753Y-68057229D01*
X214762756Y-68057230D01*
X217008120Y-68057230D01*
X217024518Y-68050437D01*
X217057312Y-68036854D01*
X217057312Y-68036853D01*
X217057316Y-68036852D01*
X217070058Y-68024110D01*
X218570706Y-68024110D01*
X218590571Y-68136775D01*
X218590572Y-68136776D01*
X218635941Y-68215356D01*
X218647772Y-68235847D01*
X218735408Y-68309382D01*
X218842910Y-68348510D01*
X218842913Y-68348510D01*
X218957307Y-68348510D01*
X218957310Y-68348510D01*
X219064812Y-68309382D01*
X219152448Y-68235847D01*
X219209649Y-68136773D01*
X219229514Y-68024110D01*
X219209649Y-67911447D01*
X219209648Y-67911445D01*
X219209648Y-67911444D01*
X219209647Y-67911443D01*
X219172636Y-67847340D01*
X219152448Y-67812373D01*
X219145372Y-67806435D01*
X219064811Y-67738837D01*
X218957312Y-67699710D01*
X218957310Y-67699710D01*
X218842910Y-67699710D01*
X218842907Y-67699710D01*
X218735408Y-67738837D01*
X218647772Y-67812372D01*
X218590572Y-67911443D01*
X218590571Y-67911444D01*
X218570706Y-68024110D01*
X217070058Y-68024110D01*
X217877902Y-67216266D01*
X217922096Y-67197960D01*
X218127312Y-67197960D01*
X218132000Y-67198136D01*
X221467805Y-67449064D01*
X221510502Y-67470633D01*
X221525441Y-67516076D01*
X221503872Y-67558773D01*
X221463117Y-67573888D01*
X220888963Y-67573888D01*
X220888872Y-67573879D01*
X220868735Y-67573882D01*
X220868619Y-67573834D01*
X220842798Y-67573839D01*
X220786407Y-67573850D01*
X220676457Y-67598965D01*
X220676453Y-67598966D01*
X220574855Y-67647910D01*
X220574852Y-67647912D01*
X220486678Y-67718242D01*
X220416368Y-67806421D01*
X220416366Y-67806424D01*
X220367438Y-67908032D01*
X220342341Y-68017987D01*
X220342340Y-68017990D01*
X220342340Y-68030667D01*
X220342339Y-68030687D01*
X220342339Y-68034506D01*
X220342339Y-68071717D01*
X220342339Y-68074380D01*
X220342338Y-68108387D01*
X220342337Y-68121528D01*
X220342339Y-68121545D01*
X220342339Y-68448464D01*
X220342312Y-68448526D01*
X220342310Y-68524123D01*
X220342310Y-68530778D01*
X220367408Y-68640745D01*
X220416349Y-68742369D01*
X220486678Y-68830554D01*
X220574869Y-68900875D01*
X220676498Y-68949807D01*
X220676499Y-68949807D01*
X220676501Y-68949808D01*
X220762602Y-68969450D01*
X220786437Y-68974888D01*
X220786464Y-68974894D01*
X220786468Y-68974895D01*
X220842859Y-68974888D01*
X220842866Y-68974888D01*
X222088827Y-68974888D01*
X222089222Y-68974847D01*
X222099193Y-68974850D01*
X222163705Y-68960136D01*
X222209157Y-68949771D01*
X222209157Y-68949770D01*
X222209159Y-68949770D01*
X222310785Y-68900847D01*
X222398974Y-68830532D01*
X222469303Y-68742355D01*
X222518243Y-68640736D01*
X222543341Y-68530775D01*
X222543339Y-68474380D01*
X222543339Y-68464750D01*
X222543339Y-68121545D01*
X222543340Y-68121528D01*
X222543339Y-68114264D01*
X222543341Y-68114262D01*
X222543339Y-68074380D01*
X222543339Y-68034506D01*
X222543339Y-68028415D01*
X222543310Y-68028125D01*
X222543310Y-68017992D01*
X222521799Y-67923749D01*
X222529812Y-67876589D01*
X222568824Y-67848908D01*
X222582732Y-67847341D01*
X224587353Y-67847341D01*
X224603751Y-67840548D01*
X224636545Y-67826965D01*
X224636545Y-67826964D01*
X224636549Y-67826963D01*
X225067246Y-67396266D01*
X225111440Y-67377960D01*
X228756734Y-67377960D01*
X228773132Y-67371167D01*
X228805926Y-67357584D01*
X228805926Y-67357583D01*
X228805930Y-67357582D01*
X229277246Y-66886266D01*
X229321440Y-66867960D01*
X229347666Y-66867960D01*
X229365178Y-66870463D01*
X229375699Y-66873535D01*
X229413520Y-66876859D01*
X229419869Y-66877418D01*
X229435233Y-66880754D01*
X229440776Y-66882714D01*
X229450072Y-66886002D01*
X229462737Y-66892165D01*
X229487442Y-66907857D01*
X229488669Y-66908657D01*
X229534085Y-66939096D01*
X229539055Y-66942208D01*
X229540316Y-66942944D01*
X229540323Y-66942948D01*
X229545535Y-66945774D01*
X229574886Y-66960519D01*
X229602776Y-66974531D01*
X229604794Y-66975503D01*
X229605630Y-66975907D01*
X229609334Y-66977615D01*
X229609243Y-66977810D01*
X229620103Y-66983153D01*
X229620127Y-66983169D01*
X229671709Y-66993429D01*
X229723290Y-67003690D01*
X229723291Y-67003690D01*
X229723292Y-67003690D01*
X229774873Y-66993429D01*
X229826455Y-66983169D01*
X229913913Y-66924732D01*
X229972350Y-66837274D01*
X229992871Y-66734110D01*
X229972350Y-66630946D01*
X229965462Y-66620638D01*
X229937493Y-66578779D01*
X229913913Y-66543488D01*
X229849039Y-66500141D01*
X229826456Y-66485051D01*
X229826454Y-66485050D01*
X229723292Y-66464530D01*
X229723291Y-66464530D01*
X229620125Y-66485051D01*
X229620123Y-66485052D01*
X229618681Y-66486016D01*
X229605422Y-66492087D01*
X229605618Y-66492595D01*
X229602759Y-66493694D01*
X229545521Y-66522451D01*
X229540349Y-66525253D01*
X229539108Y-66525976D01*
X229534091Y-66529115D01*
X229488705Y-66559535D01*
X229487417Y-66560376D01*
X229464679Y-66574818D01*
X229417559Y-66583060D01*
X229378412Y-66555569D01*
X229370170Y-66508449D01*
X229379203Y-66487336D01*
X229381279Y-66484227D01*
X229381284Y-66484225D01*
X229439721Y-66396767D01*
X229460242Y-66293603D01*
X229445251Y-66218241D01*
X229454583Y-66171326D01*
X229494356Y-66144750D01*
X229511234Y-66143725D01*
X232275580Y-66351664D01*
G37*
G04 #@! TD.AperFunction*
G04 #@! TA.AperFunction,Conductor*
G36*
X227431182Y-65987258D02*
G01*
X227473878Y-66008827D01*
X227488817Y-66054270D01*
X227481839Y-66074518D01*
X227483183Y-66075075D01*
X227480826Y-66080764D01*
X227478882Y-66090536D01*
X227473906Y-66105430D01*
X227473442Y-66106393D01*
X227473439Y-66106402D01*
X227460582Y-66156259D01*
X227458884Y-66164268D01*
X227458550Y-66166269D01*
X227458549Y-66166276D01*
X227457546Y-66174465D01*
X227456905Y-66182646D01*
X227435200Y-66225274D01*
X227394596Y-66240260D01*
X225033767Y-66240260D01*
X224989573Y-66221954D01*
X224971267Y-66177760D01*
X224981800Y-66143037D01*
X225006280Y-66106401D01*
X225033080Y-66066291D01*
X225053601Y-65963127D01*
X225038408Y-65886749D01*
X225047740Y-65839833D01*
X225087513Y-65813257D01*
X225104392Y-65812232D01*
X227431182Y-65987258D01*
G37*
G04 #@! TD.AperFunction*
G04 #@! TA.AperFunction,Conductor*
G36*
X229660841Y-66583253D02*
G01*
X229661172Y-66583971D01*
X229722384Y-66729576D01*
X229722431Y-66738530D01*
X229722384Y-66738644D01*
X229661172Y-66884248D01*
X229654806Y-66890547D01*
X229645852Y-66890500D01*
X229645154Y-66890178D01*
X229587902Y-66861415D01*
X229586641Y-66860679D01*
X229571255Y-66850367D01*
X229539674Y-66829201D01*
X229521408Y-66817599D01*
X229498335Y-66802943D01*
X229498329Y-66802940D01*
X229447961Y-66785124D01*
X229383966Y-66779498D01*
X229376025Y-66775360D01*
X229373291Y-66767843D01*
X229373291Y-66700376D01*
X229376718Y-66692103D01*
X229383964Y-66688721D01*
X229447959Y-66683095D01*
X229498332Y-66665277D01*
X229539674Y-66639018D01*
X229586646Y-66607534D01*
X229587897Y-66606805D01*
X229645136Y-66578049D01*
X229654065Y-66577398D01*
X229660841Y-66583253D01*
G37*
G04 #@! TD.AperFunction*
G04 #@! TA.AperFunction,Conductor*
G36*
X229040159Y-66231193D02*
G01*
X229186814Y-66291037D01*
X229193180Y-66297336D01*
X229193227Y-66297450D01*
X229248165Y-66432083D01*
X229252722Y-66443249D01*
X229252675Y-66452203D01*
X229246309Y-66458502D01*
X229245152Y-66458905D01*
X229182742Y-66477028D01*
X229180402Y-66477456D01*
X229121834Y-66482089D01*
X229121592Y-66482105D01*
X229070010Y-66485113D01*
X229070007Y-66485114D01*
X229018308Y-66502041D01*
X228966718Y-66542173D01*
X228958084Y-66544548D01*
X228951261Y-66541211D01*
X228903540Y-66493490D01*
X228900113Y-66485217D01*
X228903103Y-66477406D01*
X228943761Y-66432085D01*
X228971056Y-66388740D01*
X228987650Y-66346278D01*
X229003527Y-66295601D01*
X229003691Y-66295121D01*
X229024792Y-66237981D01*
X229030871Y-66231410D01*
X229039819Y-66231061D01*
X229040159Y-66231193D01*
G37*
G04 #@! TD.AperFunction*
G04 #@! TA.AperFunction,Conductor*
G36*
X228531127Y-66194064D02*
G01*
X228677294Y-66253709D01*
X228683660Y-66260008D01*
X228683707Y-66260122D01*
X228743408Y-66406427D01*
X228743361Y-66415381D01*
X228736995Y-66421680D01*
X228736315Y-66421933D01*
X228676172Y-66442222D01*
X228674899Y-66442573D01*
X228620240Y-66454362D01*
X228573330Y-66466045D01*
X228573329Y-66466046D01*
X228525935Y-66489792D01*
X228477383Y-66530950D01*
X228468856Y-66533685D01*
X228461544Y-66530298D01*
X228413831Y-66482585D01*
X228410404Y-66474312D01*
X228413090Y-66466853D01*
X228454151Y-66417241D01*
X228476139Y-66368417D01*
X228485519Y-66319927D01*
X228495404Y-66263893D01*
X228495789Y-66262349D01*
X228515578Y-66201290D01*
X228521389Y-66194477D01*
X228530315Y-66193768D01*
X228531127Y-66194064D01*
G37*
G04 #@! TD.AperFunction*
G04 #@! TA.AperFunction,Conductor*
G36*
X228055470Y-66158322D02*
G01*
X228201633Y-66217965D01*
X228207999Y-66224264D01*
X228208046Y-66224378D01*
X228267752Y-66370696D01*
X228267705Y-66379650D01*
X228261339Y-66385949D01*
X228260672Y-66386198D01*
X228200661Y-66406519D01*
X228199417Y-66406865D01*
X228144914Y-66418830D01*
X228098211Y-66430717D01*
X228050977Y-66454618D01*
X228002565Y-66495751D01*
X227994041Y-66498497D01*
X227986716Y-66495108D01*
X227939002Y-66447394D01*
X227935575Y-66439121D01*
X227938251Y-66431675D01*
X227979269Y-66381981D01*
X228001045Y-66333034D01*
X228010159Y-66284402D01*
X228010158Y-66284402D01*
X228010168Y-66284354D01*
X228019819Y-66228277D01*
X228020212Y-66226675D01*
X228039928Y-66165566D01*
X228045730Y-66158746D01*
X228054656Y-66158025D01*
X228055470Y-66158322D01*
G37*
G04 #@! TD.AperFunction*
G04 #@! TA.AperFunction,Conductor*
G36*
X227580622Y-66122071D02*
G01*
X227726356Y-66182065D01*
X227732701Y-66188382D01*
X227789501Y-66327587D01*
X227792463Y-66334845D01*
X227792416Y-66343799D01*
X227786120Y-66350069D01*
X227719146Y-66377901D01*
X227718747Y-66378058D01*
X227662841Y-66398925D01*
X227661505Y-66399335D01*
X227612231Y-66411273D01*
X227610585Y-66411549D01*
X227552021Y-66417125D01*
X227551106Y-66417176D01*
X227479400Y-66418363D01*
X227471071Y-66415074D01*
X227467508Y-66406859D01*
X227467506Y-66406665D01*
X227467506Y-66338995D01*
X227470933Y-66330722D01*
X227476606Y-66327588D01*
X227518839Y-66317975D01*
X227540815Y-66286097D01*
X227547194Y-66238792D01*
X227551657Y-66181840D01*
X227551992Y-66179836D01*
X227564850Y-66129973D01*
X227570234Y-66122817D01*
X227579100Y-66121565D01*
X227580622Y-66122071D01*
G37*
G04 #@! TD.AperFunction*
G04 #@! TA.AperFunction,Conductor*
G36*
X224633923Y-65900882D02*
G01*
X224780173Y-65960561D01*
X224786539Y-65966860D01*
X224786586Y-65966974D01*
X224846263Y-66113221D01*
X224846216Y-66122175D01*
X224839850Y-66128474D01*
X224839115Y-66128746D01*
X224778379Y-66148901D01*
X224776981Y-66149270D01*
X224721627Y-66160304D01*
X224721618Y-66160305D01*
X224721603Y-66160309D01*
X224698640Y-66165494D01*
X224673893Y-66171082D01*
X224673887Y-66171084D01*
X224625767Y-66194175D01*
X224625765Y-66194176D01*
X224576606Y-66235438D01*
X224568066Y-66238132D01*
X224560811Y-66234749D01*
X224513104Y-66187042D01*
X224509677Y-66178769D01*
X224512405Y-66171260D01*
X224553655Y-66121990D01*
X224576566Y-66073707D01*
X224587097Y-66025833D01*
X224597936Y-65970304D01*
X224598310Y-65968876D01*
X224598939Y-65966974D01*
X224618411Y-65908050D01*
X224624261Y-65901271D01*
X224633191Y-65900613D01*
X224633923Y-65900882D01*
G37*
G04 #@! TD.AperFunction*
G04 #@! TA.AperFunction,Conductor*
G36*
X224158264Y-65865101D02*
G01*
X224304514Y-65924780D01*
X224310880Y-65931079D01*
X224310927Y-65931193D01*
X224370605Y-66077441D01*
X224370558Y-66086395D01*
X224364192Y-66092694D01*
X224363458Y-66092965D01*
X224302737Y-66113120D01*
X224301340Y-66113490D01*
X224245959Y-66124539D01*
X224198267Y-66135322D01*
X224198266Y-66135322D01*
X224150145Y-66158425D01*
X224150142Y-66158427D01*
X224100993Y-66199686D01*
X224092454Y-66202381D01*
X224085198Y-66198998D01*
X224037491Y-66151291D01*
X224034064Y-66143018D01*
X224036792Y-66135508D01*
X224036948Y-66135322D01*
X224078039Y-66086235D01*
X224100938Y-66037945D01*
X224111454Y-65990064D01*
X224122282Y-65934521D01*
X224122657Y-65933094D01*
X224125404Y-65924780D01*
X224142753Y-65872269D01*
X224148601Y-65865490D01*
X224157531Y-65864832D01*
X224158264Y-65865101D01*
G37*
G04 #@! TD.AperFunction*
G04 #@! TA.AperFunction,Conductor*
G36*
X223681099Y-65829263D02*
G01*
X223827317Y-65888929D01*
X223833683Y-65895228D01*
X223833730Y-65895342D01*
X223893415Y-66041607D01*
X223893368Y-66050561D01*
X223887002Y-66056860D01*
X223886284Y-66057126D01*
X223825730Y-66077321D01*
X223824370Y-66077685D01*
X223769209Y-66088953D01*
X223721747Y-66100003D01*
X223721744Y-66100004D01*
X223673838Y-66123297D01*
X223673833Y-66123300D01*
X223624865Y-66164526D01*
X223616329Y-66167233D01*
X223609057Y-66163849D01*
X223561348Y-66116140D01*
X223557921Y-66107867D01*
X223560636Y-66100373D01*
X223601828Y-66050999D01*
X223624457Y-66002551D01*
X223634637Y-65954489D01*
X223645188Y-65898795D01*
X223645565Y-65897337D01*
X223646221Y-65895342D01*
X223649636Y-65884943D01*
X223665570Y-65836447D01*
X223671407Y-65829657D01*
X223680337Y-65828984D01*
X223681099Y-65829263D01*
G37*
G04 #@! TD.AperFunction*
G04 #@! TA.AperFunction,Conductor*
G36*
X223103503Y-65661721D02*
G01*
X223138617Y-65664849D01*
X223138803Y-65664868D01*
X223189335Y-65670627D01*
X223233065Y-65675332D01*
X223256473Y-65676794D01*
X223283761Y-65678500D01*
X223283774Y-65678500D01*
X223283784Y-65678501D01*
X223338031Y-65679381D01*
X223338654Y-65679409D01*
X223344616Y-65679858D01*
X223352607Y-65683895D01*
X223355437Y-65691457D01*
X223356339Y-65849823D01*
X223352959Y-65858116D01*
X223352876Y-65858199D01*
X223241528Y-65968590D01*
X223233241Y-65971981D01*
X223224982Y-65968518D01*
X223223678Y-65966951D01*
X223189535Y-65917743D01*
X223188032Y-65914722D01*
X223168866Y-65856340D01*
X223168778Y-65856060D01*
X223153499Y-65803925D01*
X223153497Y-65803923D01*
X223153496Y-65803920D01*
X223123738Y-65765578D01*
X223123736Y-65765577D01*
X223069752Y-65749804D01*
X223062772Y-65744195D01*
X223061366Y-65737699D01*
X223066409Y-65670659D01*
X223070446Y-65662670D01*
X223078949Y-65659874D01*
X223103503Y-65661721D01*
G37*
G04 #@! TD.AperFunction*
G04 #@! TA.AperFunction,Conductor*
G36*
X228772116Y-86517537D02*
G01*
X228775498Y-86524785D01*
X228781124Y-86588780D01*
X228798940Y-86639148D01*
X228798943Y-86639154D01*
X228813599Y-86662227D01*
X228825201Y-86680493D01*
X228846367Y-86712074D01*
X228856679Y-86727460D01*
X228857415Y-86728721D01*
X228886169Y-86785953D01*
X228886821Y-86794883D01*
X228880967Y-86801660D01*
X228880248Y-86801991D01*
X228734644Y-86863203D01*
X228725690Y-86863250D01*
X228725576Y-86863203D01*
X228579971Y-86801991D01*
X228573672Y-86795625D01*
X228573719Y-86786671D01*
X228574038Y-86785978D01*
X228602805Y-86728716D01*
X228603534Y-86727465D01*
X228635018Y-86680493D01*
X228661277Y-86639151D01*
X228679095Y-86588778D01*
X228684721Y-86524784D01*
X228688859Y-86516844D01*
X228696376Y-86514110D01*
X228763843Y-86514110D01*
X228772116Y-86517537D01*
G37*
G04 #@! TD.AperFunction*
G04 #@! TA.AperFunction,Conductor*
G36*
X229262116Y-86527537D02*
G01*
X229265498Y-86534785D01*
X229271124Y-86598780D01*
X229288940Y-86649148D01*
X229288943Y-86649154D01*
X229303599Y-86672227D01*
X229315201Y-86690493D01*
X229336367Y-86722074D01*
X229346679Y-86737460D01*
X229347415Y-86738721D01*
X229376169Y-86795953D01*
X229376821Y-86804883D01*
X229370967Y-86811660D01*
X229370248Y-86811991D01*
X229224644Y-86873203D01*
X229215690Y-86873250D01*
X229215576Y-86873203D01*
X229069971Y-86811991D01*
X229063672Y-86805625D01*
X229063719Y-86796671D01*
X229064038Y-86795978D01*
X229092805Y-86738716D01*
X229093534Y-86737465D01*
X229125018Y-86690493D01*
X229151277Y-86649151D01*
X229169095Y-86598778D01*
X229174721Y-86534784D01*
X229178859Y-86526844D01*
X229186376Y-86524110D01*
X229253843Y-86524110D01*
X229262116Y-86527537D01*
G37*
G04 #@! TD.AperFunction*
G04 #@! TA.AperFunction,Conductor*
G36*
X229752116Y-86527537D02*
G01*
X229755498Y-86534785D01*
X229761124Y-86598780D01*
X229778940Y-86649148D01*
X229778943Y-86649154D01*
X229793599Y-86672227D01*
X229805201Y-86690493D01*
X229826367Y-86722074D01*
X229836679Y-86737460D01*
X229837415Y-86738721D01*
X229866169Y-86795953D01*
X229866821Y-86804883D01*
X229860967Y-86811660D01*
X229860248Y-86811991D01*
X229714644Y-86873203D01*
X229705690Y-86873250D01*
X229705576Y-86873203D01*
X229559971Y-86811991D01*
X229553672Y-86805625D01*
X229553719Y-86796671D01*
X229554038Y-86795978D01*
X229582805Y-86738716D01*
X229583534Y-86737465D01*
X229615018Y-86690493D01*
X229641277Y-86649151D01*
X229659095Y-86598778D01*
X229664721Y-86534784D01*
X229668859Y-86526844D01*
X229676376Y-86524110D01*
X229743843Y-86524110D01*
X229752116Y-86527537D01*
G37*
G04 #@! TD.AperFunction*
G04 #@! TA.AperFunction,Conductor*
G36*
X230252116Y-86527537D02*
G01*
X230255498Y-86534785D01*
X230261124Y-86598780D01*
X230278940Y-86649148D01*
X230278943Y-86649154D01*
X230293599Y-86672227D01*
X230305201Y-86690493D01*
X230326367Y-86722074D01*
X230336679Y-86737460D01*
X230337415Y-86738721D01*
X230366169Y-86795953D01*
X230366821Y-86804883D01*
X230360967Y-86811660D01*
X230360248Y-86811991D01*
X230214644Y-86873203D01*
X230205690Y-86873250D01*
X230205576Y-86873203D01*
X230059971Y-86811991D01*
X230053672Y-86805625D01*
X230053719Y-86796671D01*
X230054038Y-86795978D01*
X230082805Y-86738716D01*
X230083534Y-86737465D01*
X230115018Y-86690493D01*
X230141277Y-86649151D01*
X230159095Y-86598778D01*
X230164721Y-86534784D01*
X230168859Y-86526844D01*
X230176376Y-86524110D01*
X230243843Y-86524110D01*
X230252116Y-86527537D01*
G37*
G04 #@! TD.AperFunction*
M02*
